<svg width="24" height="25" viewBox="0 0 24 25" fill="none" xmlns="http://www.w3.org/2000/svg">
<path d="M21.07 6.14992C19.46 5.98992 17.85 5.86992 16.23 5.77992V5.76992L16.01 4.46992C15.86 3.54992 15.64 2.16992 13.3 2.16992H10.68C8.35004 2.16992 8.13003 3.48992 7.97004 4.45992L7.76004 5.73992C6.83004 5.79992 5.90004 5.85992 4.97004 5.94992L2.93004 6.14992C2.51004 6.18992 2.21004 6.55992 2.25004 6.96992C2.29004 7.37992 2.65004 7.67992 3.07004 7.63992L5.11004 7.43992C10.35 6.91992 15.63 7.11992 20.93 7.64992C20.96 7.64992 20.98 7.64992 21.01 7.64992C21.39 7.64992 21.72 7.35992 21.76 6.96992C21.79 6.55992 21.49 6.18992 21.07 6.14992Z" fill="#A6A6A6"/>
<path d="M19.23 9.05992C18.99 8.80992 18.66 8.66992 18.32 8.66992H5.67999C5.33999 8.66992 4.99999 8.80992 4.76999 9.05992C4.53999 9.30992 4.40999 9.64992 4.42999 9.99992L5.04999 20.2599C5.15999 21.7799 5.29999 23.6799 8.78999 23.6799H15.21C18.7 23.6799 18.84 21.7899 18.95 20.2599L19.57 10.0099C19.59 9.64992 19.46 9.30992 19.23 9.05992ZM13.66 18.6699H10.33C9.91999 18.6699 9.57999 18.3299 9.57999 17.9199C9.57999 17.5099 9.91999 17.1699 10.33 17.1699H13.66C14.07 17.1699 14.41 17.5099 14.41 17.9199C14.41 18.3299 14.07 18.6699 13.66 18.6699ZM14.5 14.6699H9.49999C9.08999 14.6699 8.74999 14.3299 8.74999 13.9199C8.74999 13.5099 9.08999 13.1699 9.49999 13.1699H14.5C14.91 13.1699 15.25 13.5099 15.25 13.9199C15.25 14.3299 14.91 14.6699 14.5 14.6699Z" fill="#A6A6A6"/>
</svg>
