<svg width="20" height="20" viewBox="0 0 20 20" fill="none" xmlns="http://www.w3.org/2000/svg">
<path d="M10.4269 3.35104L11.0602 2.7177C11.2897 2.47144 11.2829 2.08769 11.0449 1.84968C10.8069 1.61167 10.4231 1.6049 10.1769 1.83437L8.51019 3.50104C8.26648 3.74505 8.26648 4.14035 8.51019 4.38437L10.1769 6.05104C10.4209 6.29475 10.8162 6.29475 11.0602 6.05104C11.3039 5.80702 11.3039 5.41172 11.0602 5.1677L10.5102 4.6177C13.3163 4.9653 15.5032 7.21756 15.7681 10.0327C16.0329 12.8479 14.3044 15.4685 11.6123 16.3333C8.92019 17.1981 5.98888 16.0745 4.56464 13.6317C3.14041 11.189 3.60648 8.08453 5.68519 6.1677C5.88663 5.92818 5.87985 5.57658 5.66933 5.345C5.4588 5.11343 5.10944 5.07327 4.85186 5.25104C2.31701 7.58587 1.76295 11.3766 3.5235 14.3392C5.28405 17.3019 8.87841 18.6274 12.141 17.5172C15.4035 16.407 17.4433 13.1641 17.0313 9.74257C16.6193 6.32099 13.868 3.65507 10.4352 3.35104H10.4269Z" fill="white"/>
</svg>
