<svg width="36" height="36" viewBox="0 0 36 36" fill="none" xmlns="http://www.w3.org/2000/svg">
<g clip-path="url(#clip0_4705_6322)">
<path d="M0 18C0 8.0589 8.0589 0 18 0C27.9411 0 36 8.0589 36 18C36 27.9411 27.9411 36 18 36C8.0589 36 0 27.9411 0 18Z" fill="#FFE812"/>
<path d="M18 7.5C11.3726 7.5 6 11.7362 6 16.9615C6 20.3399 8.2461 23.3042 11.6248 24.9781C11.4409 25.612 10.4436 29.0563 10.4039 29.3269C10.4039 29.3269 10.38 29.5301 10.5116 29.6077C10.6433 29.6852 10.7981 29.625 10.7981 29.625C11.1757 29.5723 15.1762 26.7622 15.8686 26.2742C16.5604 26.3722 17.2726 26.4231 18 26.4231C24.6275 26.4231 30 22.1871 30 16.9615C30 11.7362 24.6275 7.5 18 7.5Z" fill="#381F1F"/>
<path fill-rule="evenodd" clip-rule="evenodd" d="M11.3655 20.2646C10.9836 20.2646 10.6731 19.968 10.6731 19.6034V15.4905H9.59292C9.2183 15.4905 8.91357 15.1863 8.91357 14.8126C8.91357 14.4389 9.21837 14.1348 9.59292 14.1348H13.138C13.5127 14.1348 13.8174 14.4389 13.8174 14.8126C13.8174 15.1863 13.5126 15.4905 13.138 15.4905H12.0578V19.6034C12.0578 19.968 11.7473 20.2646 11.3655 20.2646ZM17.436 20.2556C17.1474 20.2556 16.9266 20.1384 16.86 19.9498L16.5171 19.0524L14.406 19.0522L14.0631 19.9503C13.9967 20.1384 13.776 20.2556 13.4873 20.2556C13.3354 20.2557 13.1853 20.2231 13.0472 20.16C12.8563 20.072 12.6729 19.8299 12.8831 19.1769L14.5391 14.8182C14.6558 14.4867 15.0101 14.1451 15.4611 14.1348C15.9132 14.145 16.2675 14.4867 16.3845 14.8188L18.0398 19.1757C18.2505 19.8301 18.067 20.0724 17.8761 20.1601C17.738 20.2231 17.5879 20.2557 17.436 20.2556ZM15.4616 15.8616L16.1531 17.826H14.7701L15.4616 15.8616ZM19.1539 20.1636C18.788 20.1636 18.4905 19.8789 18.4905 19.529V14.8271C18.4905 14.4453 18.8075 14.1348 19.1972 14.1348C19.5868 14.1348 19.9039 14.4453 19.9039 14.8271V18.8943H21.375C21.741 18.8943 22.0386 19.1791 22.0386 19.529C22.0386 19.8789 21.741 20.1636 21.375 20.1636H19.1539ZM22.3078 19.5633C22.3078 19.9451 22.6183 20.2556 23.0001 20.2556C23.1838 20.2553 23.3598 20.1822 23.4896 20.0524C23.6194 19.9226 23.6925 19.7466 23.6927 19.5629V18.0524L23.9329 17.8122L25.5565 19.9634C25.6208 20.0493 25.7043 20.1189 25.8003 20.1667C25.8963 20.2145 26.0022 20.2391 26.1095 20.2386C26.2599 20.2389 26.4063 20.1899 26.526 20.0988C26.5987 20.0443 26.6599 19.9759 26.706 19.8975C26.7521 19.8192 26.7822 19.7324 26.7945 19.6423C26.8075 19.5522 26.8024 19.4606 26.7795 19.3725C26.7567 19.2845 26.7167 19.2018 26.6616 19.1294L24.9575 16.8718L26.5352 15.2943C26.6437 15.1858 26.698 15.0361 26.688 14.8728C26.678 14.711 26.6057 14.5551 26.4844 14.4339C26.3544 14.304 26.1808 14.2295 26.008 14.2295C25.8598 14.2295 25.7233 14.2842 25.624 14.3835L23.6925 16.3151V14.8271C23.6925 14.4453 23.382 14.1348 23.0001 14.1348C22.6183 14.1348 22.3078 14.4453 22.3078 14.8271V19.5633Z" fill="#FFE812"/>
</g>
<defs>
<clipPath id="clip0_4705_6322">
<rect width="36" height="36" fill="white"/>
</clipPath>
</defs>
</svg>
