<svg width="21" height="21" viewBox="0 0 21 21" fill="none" xmlns="http://www.w3.org/2000/svg">
<path d="M14.0022 2.58691H7.01891C3.98558 2.58691 2.17725 4.39525 2.17725 7.42858V14.4036C2.17725 17.4452 3.98558 19.2536 7.01891 19.2536H13.9939C17.0272 19.2536 18.8356 17.4452 18.8356 14.4119V7.42858C18.8439 4.39525 17.0356 2.58691 14.0022 2.58691ZM15.5106 11.5452H11.1356V15.9202C11.1356 16.2619 10.8522 16.5452 10.5106 16.5452C10.1689 16.5452 9.88558 16.2619 9.88558 15.9202V11.5452H5.51058C5.16891 11.5452 4.88558 11.2619 4.88558 10.9202C4.88558 10.5786 5.16891 10.2952 5.51058 10.2952H9.88558V5.92025C9.88558 5.57858 10.1689 5.29525 10.5106 5.29525C10.8522 5.29525 11.1356 5.57858 11.1356 5.92025V10.2952H15.5106C15.8522 10.2952 16.1356 10.5786 16.1356 10.9202C16.1356 11.2619 15.8522 11.5452 15.5106 11.5452Z" fill="#A6A6A6"/>
</svg>
