<svg height="100%" viewBox="0 0 100 14" fill="none" xmlns="http://www.w3.org/2000/svg">
<path d="M22.9797 4.84915C26.0013 5.10173 28.1081 5.75544 28.1081 7.92458C28.1081 9.90058 26.2924 11.312 22.9936 11.312C20.7204 11.312 18.7107 10.5989 17.1999 9.2023L18.2394 7.93944C19.5562 9.2023 21.1085 9.76687 23.0629 9.76687C25.2251 9.76687 26.4171 9.15773 26.4171 8.07315C26.4171 7.00344 25.1974 6.72115 22.7579 6.4983C20.0829 6.26058 17.5603 5.62173 17.5603 3.49715C17.5603 1.43201 19.7918 0.288011 22.5778 0.288011C24.6846 0.288011 26.4726 0.956581 27.6368 2.01144L26.5834 3.22973C25.5855 2.29373 24.2133 1.84801 22.6055 1.83315C21.067 1.8183 19.2374 2.21944 19.2374 3.3783C19.2374 4.47773 20.8591 4.67087 22.9797 4.84915Z" fill="#CDC9CF"/>
<path d="M34.6545 9.33601L35.0842 10.5394C34.4604 10.9852 33.6149 11.2972 32.7417 11.2972C31.2587 11.2972 30.0805 10.4503 30.0805 8.75658V4.24001H28.6113V2.8583H30.0805V0.971439H31.7022V2.8583H35.0149V4.24001H31.7022V8.4743C31.7022 9.38058 32.3536 9.8263 33.1437 9.8263C33.712 9.8263 34.1971 9.60344 34.6545 9.33601Z" fill="#CDC9CF"/>
<path d="M43.0523 2.8583H44.7572L39.0189 13.9714H37.3279L39.2268 10.4652L35.2627 2.8583H37.0091L40.0585 8.80115L43.0523 2.8583Z" fill="#CDC9CF"/>
<path d="M47.5961 11H45.9883V0.0057251H47.5961V11Z" fill="#CDC9CF"/>
<path d="M50.9054 7.31544C51.0578 9.08344 52.2637 9.94516 54.1765 9.94516C55.5764 9.94516 56.4496 9.55887 57.2812 8.77144L58.2237 9.85601C57.1842 10.8514 55.8674 11.312 54.0933 11.312C51.0578 11.312 49.3114 9.6183 49.3114 6.94401C49.3114 4.24001 51.0578 2.5463 53.9824 2.5463C56.7129 2.5463 58.4871 4.07658 58.4871 6.92915C58.4871 7.1223 58.4732 7.2263 58.4455 7.31544H50.9054ZM53.9963 3.91315C52.4023 3.91315 51.2796 4.64115 50.9747 6.0823L56.9208 6.06744C56.5743 4.58173 55.4932 3.91315 53.9963 3.91315Z" fill="#CDC9CF"/>
<path d="M61.977 9.42515H69.129V11H60.3137V0.60001H61.977V9.42515Z" fill="#CDC9CF"/>
<path d="M74.4231 11.312C71.4847 11.312 69.6967 9.63315 69.6967 6.94401C69.6967 4.24001 71.4847 2.5463 74.4231 2.5463C77.3754 2.5463 79.1495 4.24001 79.1495 6.94401C79.1495 9.63315 77.3754 11.312 74.4231 11.312ZM74.4231 9.85601C76.225 9.85601 77.5694 8.8903 77.5694 6.94401C77.5694 4.96801 76.225 4.0023 74.4231 4.0023C72.6351 4.0023 71.2906 4.96801 71.2906 6.94401C71.2906 8.8903 72.6351 9.85601 74.4231 9.85601Z" fill="#CDC9CF"/>
<path d="M85.0285 11.312C82.0901 11.312 80.3021 9.63315 80.3021 6.94401C80.3021 4.24001 82.0901 2.5463 85.0285 2.5463C87.9808 2.5463 89.755 4.24001 89.755 6.94401C89.755 9.63315 87.9808 11.312 85.0285 11.312ZM85.0285 9.85601C86.8304 9.85601 88.1749 8.8903 88.1749 6.94401C88.1749 4.96801 86.8304 4.0023 85.0285 4.0023C83.2405 4.0023 81.8961 4.96801 81.8961 6.94401C81.8961 8.8903 83.2405 9.85601 85.0285 9.85601Z" fill="#CDC9CF"/>
<path d="M98.1428 11L95.1073 7.04801L93.0698 8.83087V11H91.4481V0.0057251H93.0698V7.15201L97.7824 2.8583H99.7783L96.2854 6.0823L100 11H98.1428Z" fill="#CDC9CF"/>
<path d="M0 3.28571C0 1.47106 1.46959 0 3.28243 0H13.9271V6.57143H3.28243C1.46959 6.57143 0 5.10036 0 3.28571Z" fill="#CDC9CF"/>
<path d="M13.9272 10.7143C13.9272 12.5289 12.4576 14 10.6447 14L9.33667e-06 14L9.87263e-06 7.42857L10.6447 7.42857C12.4576 7.42857 13.9272 8.89964 13.9272 10.7143Z" fill="#CDC9CF"/>
</svg>
