<svg width="18" height="14" viewBox="0 0 18 14" fill="none" xmlns="http://www.w3.org/2000/svg">
<path d="M9.66167 5.55811L9.66169 5.55813L16.4805 9.90136L9.66167 5.55811ZM9.66167 5.55811C9.64306 5.54627 9.6281 5.53525 9.61155 5.52306L9.60902 5.5212C9.59201 5.50868 9.57202 5.49403 9.54832 5.48029C9.51512 5.46104 9.47811 5.4455 9.43012 5.43275V5.1654C10.4438 4.90819 11.1835 4.08018 11.1835 3.03838C11.1835 1.89288 10.3078 0.9 9.2239 0.9C8.33598 0.9 7.55873 1.54507 7.33399 2.4577C7.28832 2.64224 7.38495 2.84529 7.57329 2.8995C7.76373 2.95564 7.94898 2.83159 7.99534 2.64225C8.14362 2.04077 8.6476 1.63089 9.21448 1.63089C9.90288 1.63089 10.4762 2.24281 10.4762 3.00543C10.4762 3.73562 9.8595 4.39653 9.16264 4.4244C9.13263 4.41227 9.09986 4.40349 9.05656 4.40349C8.85471 4.40349 8.72265 4.57863 8.72265 4.76607V5.41696C8.58245 5.44852 8.47855 5.49941 8.36454 5.57203L8.3645 5.57206M9.66167 5.55811L8.3645 5.57206M8.3645 5.57206L1.52128 9.93554C1.03175 10.2463 0.795485 10.9484 0.944191 11.537L0.944201 11.537M8.3645 5.57206L0.944201 11.537M0.944201 11.537C1.09711 12.1412 1.59477 12.6556 2.15916 12.6556H15.8377C16.4021 12.6556 16.9021 12.1423 17.0551 11.5379L17.0551 11.5378M0.944201 11.537L17.0551 11.5378M17.0551 11.5378C17.1312 11.2362 17.1075 10.9051 17.0069 10.6124M17.0551 11.5378L17.0069 10.6124M17.0069 10.6124C16.9066 10.3202 16.7265 10.0577 16.4806 9.90141L17.0069 10.6124ZM1.87108 10.5753L1.87142 10.575L8.71008 6.20225C8.81251 6.13692 8.91222 6.1034 8.99842 6.1034C9.10883 6.1034 9.20466 6.12928 9.28677 6.18186L9.28693 6.18196L16.126 10.5424L16.1262 10.5425C16.2279 10.607 16.3143 10.729 16.3652 10.8797C16.4158 11.0295 16.4272 11.1963 16.3909 11.34C16.3523 11.4927 16.2684 11.6379 16.1638 11.7438C16.058 11.8509 15.941 11.9083 15.8377 11.9083H2.15916C2.05594 11.9083 1.93902 11.8508 1.83318 11.7436C1.72852 11.6375 1.64452 11.492 1.60575 11.3388C1.53301 11.0503 1.65525 10.7121 1.87108 10.5753Z" fill="#2F2F30" stroke="#2F2F30" stroke-width="0.2"/>
</svg>
