<svg width="100%" height="100%" viewBox="0 0 16 16" fill="none" xmlns="http://www.w3.org/2000/svg">
<path d="M1.3335 1.33337H2.4935C3.2135 1.33337 3.78016 1.95337 3.72016 2.66671L3.16683 9.3067C3.0735 10.3934 3.93349 11.3267 5.02682 11.3267H12.1268C13.0868 11.3267 13.9268 10.54 14.0002 9.58671L14.3602 4.58671C14.4402 3.48004 13.6002 2.58004 12.4868 2.58004H3.88017" stroke="white" stroke-miterlimit="10" stroke-linecap="round" stroke-linejoin="round"/>
<path d="M10.8335 14.6667C11.2937 14.6667 11.6668 14.2936 11.6668 13.8334C11.6668 13.3732 11.2937 13.0001 10.8335 13.0001C10.3733 13.0001 10.0002 13.3732 10.0002 13.8334C10.0002 14.2936 10.3733 14.6667 10.8335 14.6667Z" stroke="white" stroke-miterlimit="10" stroke-linecap="round" stroke-linejoin="round"/>
<path d="M5.50016 14.6667C5.9604 14.6667 6.3335 14.2936 6.3335 13.8334C6.3335 13.3732 5.9604 13.0001 5.50016 13.0001C5.03993 13.0001 4.66683 13.3732 4.66683 13.8334C4.66683 14.2936 5.03993 14.6667 5.50016 14.6667Z" stroke="white" stroke-miterlimit="10" stroke-linecap="round" stroke-linejoin="round"/>
<path d="M6.00016 5.33337H14.0002" stroke="white" stroke-miterlimit="10" stroke-linecap="round" stroke-linejoin="round"/>
</svg>
