<svg width="292" height="39" viewBox="0 0 292 39" fill="none" xmlns="http://www.w3.org/2000/svg">
<path d="M67.2807 13.1795C76.0836 13.866 82.2214 15.6427 82.2214 21.5382C82.2214 26.9088 76.9316 30.7449 67.3211 30.7449C60.6987 30.7449 54.8436 28.8067 50.4421 25.0109L53.4707 21.5786C57.3068 25.0109 61.8294 26.5454 67.523 26.5454C73.8223 26.5454 77.295 24.8898 77.295 21.942C77.295 19.0346 73.7416 18.2674 66.6346 17.6617C58.8412 17.0156 51.492 15.2793 51.492 9.50489C51.492 3.89203 57.9933 0.782744 66.1097 0.782744C72.2475 0.782744 77.4566 2.59986 80.8485 5.46686L77.7796 8.77804C74.8722 6.23408 70.8746 5.02267 66.1905 4.98229C61.7082 4.94191 56.378 6.03218 56.378 9.18185C56.378 12.17 61.1025 12.6949 67.2807 13.1795Z" fill="#131314"/>
<path d="M101.293 25.3743L102.545 28.6452C100.728 29.8566 98.2647 30.7045 95.7208 30.7045C91.4001 30.7045 87.9677 28.4029 87.9677 23.7995V11.5239H83.6874V7.76853H87.9677V2.64024H92.6922V7.76853H102.343V11.5239H92.6922V23.0323C92.6922 25.4955 94.5901 26.7069 96.8918 26.7069C98.5474 26.7069 99.9607 26.1012 101.293 25.3743Z" fill="#131314"/>
<path d="M125.759 7.76853H130.726L114.008 37.973H109.082L114.614 28.4433L103.065 7.76853H108.153L117.037 23.9207L125.759 7.76853Z" fill="#131314"/>
<path d="M138.996 29.8969H134.312V0.0155182H138.996V29.8969Z" fill="#131314"/>
<path d="M148.638 19.8826C149.082 24.6879 152.595 27.0299 158.167 27.0299C162.246 27.0299 164.79 25.9801 167.213 23.8399L169.958 26.7877C166.93 29.4931 163.094 30.7449 157.925 30.7449C149.082 30.7449 143.994 26.1416 143.994 18.8731C143.994 11.5239 149.082 6.92055 157.602 6.92055C165.557 6.92055 170.726 11.0797 170.726 18.8327C170.726 19.3577 170.685 19.6403 170.604 19.8826H148.638ZM157.642 10.6355C152.999 10.6355 149.728 12.6142 148.839 16.5311L166.163 16.4907C165.153 12.4527 162.003 10.6355 157.642 10.6355Z" fill="#131314"/>
<path d="M180.893 25.6166H201.729V29.8969H176.047V1.63073H180.893V25.6166Z" fill="#131314"/>
<path d="M217.153 30.7449C208.592 30.7449 203.383 26.182 203.383 18.8731C203.383 11.5239 208.592 6.92055 217.153 6.92055C225.754 6.92055 230.922 11.5239 230.922 18.8731C230.922 26.182 225.754 30.7449 217.153 30.7449ZM217.153 26.7877C222.402 26.7877 226.319 24.1629 226.319 18.8731C226.319 13.5025 222.402 10.8778 217.153 10.8778C211.943 10.8778 208.027 13.5025 208.027 18.8731C208.027 24.1629 211.943 26.7877 217.153 26.7877Z" fill="#131314"/>
<path d="M248.05 30.7449C239.489 30.7449 234.28 26.182 234.28 18.8731C234.28 11.5239 239.489 6.92055 248.05 6.92055C256.651 6.92055 261.819 11.5239 261.819 18.8731C261.819 26.182 256.651 30.7449 248.05 30.7449ZM248.05 26.7877C253.299 26.7877 257.216 24.1629 257.216 18.8731C257.216 13.5025 253.299 10.8778 248.05 10.8778C242.841 10.8778 238.924 13.5025 238.924 18.8731C238.924 24.1629 242.841 26.7877 248.05 26.7877Z" fill="#131314"/>
<path d="M286.256 29.8969L277.413 19.1558L271.477 24.0014V29.8969H266.752V0.0155182H271.477V19.4384L285.206 7.76853H291.021L280.845 16.5311L291.667 29.8969H286.256Z" fill="#131314"/>
<path d="M0.333252 8.93026C0.333252 3.99821 4.33147 0 9.26351 0H40.9077V17.8605H9.2635C4.33146 17.8605 0.333252 13.8623 0.333252 8.93026Z" fill="#9A00FF"/>
<path d="M40.9077 29.1204C40.9077 34.0524 36.9095 38.0507 31.9775 38.0507L0.333271 38.0507L0.333273 20.1901L31.9775 20.1901C36.9095 20.1901 40.9077 24.1884 40.9077 29.1204Z" fill="#9A00FF"/>
</svg>
