<svg width="1501" viewBox="0 0 1501 196" fill="none" xmlns="http://www.w3.org/2000/svg">
<path d="M344.848 67.8881C390.192 71.4241 421.808 80.5761 421.808 110.944C421.808 138.608 394.56 158.368 345.056 158.368C310.944 158.368 280.784 148.384 258.112 128.832L273.712 111.152C293.472 128.832 316.768 136.736 346.096 136.736C378.544 136.736 396.432 128.208 396.432 113.024C396.432 98.0481 378.128 94.0961 341.52 90.9761C301.376 87.6481 263.52 78.7041 263.52 48.9601C263.52 20.0481 297.008 4.03208 338.816 4.03208C370.432 4.03208 397.264 13.3921 414.736 28.1601L398.928 45.2161C383.952 32.1121 363.36 25.8721 339.232 25.6641C316.144 25.4561 288.688 31.0721 288.688 47.2961C288.688 62.6881 313.024 65.3921 344.848 67.8881Z" fill="white"/>
<path d="M520.047 130.704L526.495 147.552C517.135 153.792 504.447 158.16 491.343 158.16C469.087 158.16 451.407 146.304 451.407 122.592V59.3601H429.359V40.0161H451.407V13.6001H475.743V40.0161H525.455V59.3601H475.743V118.64C475.743 131.328 485.519 137.568 497.375 137.568C505.903 137.568 513.183 134.448 520.047 130.704Z" fill="white"/>
<path d="M646.071 40.0161H671.655L585.543 195.6H560.167L588.663 146.512L529.175 40.0161H555.383L601.143 123.216L646.071 40.0161Z" fill="white"/>
<path d="M714.258 154H690.13V0.0800781H714.258V154Z" fill="white"/>
<path d="M763.919 102.416C766.207 127.168 784.303 139.232 813.007 139.232C834.015 139.232 847.119 133.824 859.599 122.8L873.743 137.984C858.143 151.92 838.383 158.368 811.759 158.368C766.207 158.368 739.999 134.656 739.999 97.2161C739.999 59.3601 766.207 35.6481 810.095 35.6481C851.071 35.6481 877.695 57.0721 877.695 97.0081C877.695 99.7121 877.487 101.168 877.071 102.416H763.919ZM810.303 54.7841C786.383 54.7841 769.535 64.9761 764.959 85.1521L854.191 84.9441C848.991 64.1441 832.767 54.7841 810.303 54.7841Z" fill="white"/>
<path d="M930.067 131.952H1037.4V154H905.107V8.40007H930.067V131.952Z" fill="white"/>
<path d="M1116.84 158.368C1072.75 158.368 1045.91 134.864 1045.91 97.2161C1045.91 59.3601 1072.75 35.6481 1116.84 35.6481C1161.15 35.6481 1187.77 59.3601 1187.77 97.2161C1187.77 134.864 1161.15 158.368 1116.84 158.368ZM1116.84 137.984C1143.88 137.984 1164.06 124.464 1164.06 97.2161C1164.06 69.5521 1143.88 56.0321 1116.84 56.0321C1090.01 56.0321 1069.83 69.5521 1069.83 97.2161C1069.83 124.464 1090.01 137.984 1116.84 137.984Z" fill="white"/>
<path d="M1275.99 158.368C1231.9 158.368 1205.07 134.864 1205.07 97.2161C1205.07 59.3601 1231.9 35.6481 1275.99 35.6481C1320.3 35.6481 1346.92 59.3601 1346.92 97.2161C1346.92 134.864 1320.3 158.368 1275.99 158.368ZM1275.99 137.984C1303.03 137.984 1323.21 124.464 1323.21 97.2161C1323.21 69.5521 1303.03 56.0321 1275.99 56.0321C1249.16 56.0321 1228.99 69.5521 1228.99 97.2161C1228.99 124.464 1249.16 137.984 1275.99 137.984Z" fill="white"/>
<path d="M1472.79 154L1427.24 98.6721L1396.67 123.632V154H1372.33V0.0800781H1396.67V100.128L1467.39 40.0161H1497.34L1444.92 85.1521L1500.67 154H1472.79Z" fill="white"/>
<path d="M0 46C0 20.5949 20.5949 0 46 0H209V92H46C20.5949 92 0 71.4051 0 46V46Z" fill="white"/>
<path d="M209 150C209 175.405 188.405 196 163 196L-1.52588e-05 196L-7.21589e-06 104L163 104C188.405 104 209 124.595 209 150V150Z" fill="white"/>
</svg>
